<svg xmlns="http://www.w3.org/2000/svg" width="34" height="34" viewBox="0 0 34 34"><defs><style>.a{fill:#fff;}</style></defs><path class="a" d="M0,17.659H1.309A15.7,15.7,0,0,0,16.345,32.683V34A17,17,0,0,1,0,17.659ZM17.663,32.683a15.661,15.661,0,0,0,9.97-4.132l.934.925a16.961,16.961,0,0,1-10.9,4.516Zm0-2.62A13.03,13.03,0,0,0,25.794,26.7l.911.925a14.355,14.355,0,0,1-9.042,3.751ZM7.29,27.623l.925-.925a13.02,13.02,0,0,0,8.131,3.364v1.312A14.368,14.368,0,0,1,7.29,27.623ZM17.663,5.239a11.675,11.675,0,0,1,4.9,1.376v9.726h1.309V7.43h.008a11.771,11.771,0,0,1,0,19.128V18.968H22.572v8.409a11.779,11.779,0,0,1-4.909,1.376ZM5.172,17A11.773,11.773,0,0,1,16.345,5.239v11.1H10.13v2.626h1.309V17.659h4.906V28.753A11.774,11.774,0,0,1,5.172,17ZM28.555,27.631a15.653,15.653,0,0,0,4.135-9.973H34a16.953,16.953,0,0,1-4.517,10.9ZM26.7,25.787a13.021,13.021,0,0,0,3.364-8.129h1.312A14.346,14.346,0,0,1,27.63,26.7ZM2.619,17.659H3.925A13.038,13.038,0,0,0,7.29,25.787l-.922.911A14.324,14.324,0,0,1,2.619,17.659Zm-.011-1.306A14.378,14.378,0,0,1,16.345,2.618V3.924A13.089,13.089,0,0,0,3.925,16.353Zm27.462-.008A13.012,13.012,0,0,0,26.7,8.215l.925-.928a14.356,14.356,0,0,1,2.633,4.107h0a14.293,14.293,0,0,1,1.119,4.95ZM0,16.341A16.988,16.988,0,0,1,16.345,0V1.309A15.7,15.7,0,0,0,1.309,16.341Zm32.691,0A15.7,15.7,0,0,0,17.663,1.309V0A16.984,16.984,0,0,1,32.674,10.371h0A16.853,16.853,0,0,1,34,16.341ZM17.663,3.924V2.618A14.452,14.452,0,0,1,26.719,6.36l-.925.928A13.046,13.046,0,0,0,17.663,3.924Z"/></svg>
